<?xml version="1.0" encoding="utf-8"?>
<!-- Generator: Adobe Illustrator 16.0.0, SVG Export Plug-In . SVG Version: 6.00 Build 0)  -->
<!DOCTYPE svg PUBLIC "-//W3C//DTD SVG 1.1//EN" "http://www.w3.org/Graphics/SVG/1.1/DTD/svg11.dtd">
<svg version="1.1" id="Layer_1" xmlns="http://www.w3.org/2000/svg" xmlns:xlink="http://www.w3.org/1999/xlink" x="0px" y="0px"
	 width="254.403px" height="77.836px" viewBox="0 0 254.403 77.836" enable-background="new 0 0 254.403 77.836"
	 xml:space="preserve">
<path fill="#127681" d="M243.901,60.014c0,1.086-0.147,1.924-0.443,2.517c-0.296,0.592-0.889,1.085-1.776,1.479
	s-2.27,0.765-4.144,1.11c-2.813,0.493-7.672,0.789-14.578,0.888c-0.197,0.444-0.296,1.086-0.296,1.924
	c0,0.493,0.222,1.135,0.666,1.924c8.929,0.05,16.428-0.566,22.496-1.85c4.439-0.839,6.61-3.306,6.512-7.4V17.982
	c0.049-1.036-0.024-1.751-0.223-2.146c-0.147-0.444-0.518-0.715-1.109-0.814c-0.592-0.148-1.628-0.222-3.108-0.222
	c-3.403,0-6.733,0.469-9.99,1.406c-0.147,0.444-0.222,0.863-0.222,1.258c0,0.592,0.099,1.061,0.296,1.406l5.106-0.148
	c0.542,0,0.813,1.356,0.813,4.07v24.494c-4.884,1.381-8.387,2.072-10.508,2.072c-2.763,0-4.144-1.012-4.144-3.034V17.982
	c0.049-1.036-0.025-1.751-0.223-2.146c-0.147-0.444-0.518-0.715-1.109-0.814c-0.592-0.148-1.628-0.222-3.108-0.222
	c-3.404,0-6.733,0.469-9.99,1.406c-0.147,0.444-0.222,0.863-0.222,1.258c0,0.592,0.099,1.061,0.296,1.406L220,18.722
	c0.542,0,0.813,1.356,0.813,4.07v25.382c0,2.022,0.567,3.479,1.702,4.366c1.135,0.839,3.059,1.258,5.772,1.258
	c0.493,0,1.332-0.049,2.516-0.147c1.974-0.247,3.675-0.543,5.106-0.889c1.775-0.443,3.527-0.912,5.254-1.406l2.737-0.739V60.014z
	 M199.213,48.026c-3.699,1.085-6.709,1.628-9.027,1.628c-3.108,0-4.662-1.11-4.662-3.33V38.11c0-1.727,0.32-2.836,0.962-3.33
	c0.888-0.74,2.565-1.332,5.032-1.776c2.417-0.444,4.982-0.715,7.695-0.814V48.026z M213.644,52.392
	c0.147-0.443,0.222-0.863,0.222-1.258c0-0.592-0.099-1.061-0.296-1.406l-5.106,0.148c-0.542,0-0.813-1.356-0.813-4.07V20.202
	c0-1.924-0.617-3.306-1.851-4.144c-1.184-0.839-3.107-1.258-5.771-1.258c-8.239,0-15.491,0.987-21.756,2.96
	c-0.197,0.346-0.296,0.839-0.296,1.48c0,0.642,0.123,1.258,0.369,1.85c1.135-0.345,3.503-0.863,7.104-1.554
	c4.144-0.691,6.906-1.036,8.288-1.036c2.22,0,3.675,0.296,4.366,0.888c0.739,0.592,1.109,1.826,1.109,3.7v5.772
	c-4.933,0.247-10.138,0.79-15.613,1.628c-2.27,0.494-3.923,1.332-4.958,2.516c-1.036,1.135-1.555,2.738-1.555,4.81v10.36
	c0,2.072,0.567,3.527,1.702,4.366s3.059,1.258,5.772,1.258c4.095,0,8.979-0.813,14.651-2.442c0,0.74,0.099,1.259,0.296,1.555
	c0.197,0.345,0.593,0.567,1.185,0.666c0.642,0.147,1.628,0.222,2.96,0.222C207.156,53.798,210.486,53.329,213.644,52.392z
	 M168.526,10.064c0-2.615-0.395-4.637-1.184-6.068c-0.74-1.431-1.974-2.442-3.7-3.034s-4.145-0.888-7.252-0.888
	c-10.656,0-20.055,1.16-28.194,3.478c-0.197,0.444-0.296,1.036-0.296,1.776c0,0.74,0.147,1.381,0.444,1.924
	c2.17-0.74,5.697-1.456,10.582-2.146c4.933-0.74,9.472-1.11,13.615-1.11c1.875,0,3.306,0.222,4.292,0.666
	c1.036,0.395,1.752,1.11,2.146,2.146c0.443,0.986,0.666,2.417,0.666,4.292v32.116c0,2.664-1.061,4.44-3.183,5.328
	c-2.121,0.888-6.29,1.332-12.506,1.332c-2.269,0-3.799-0.32-4.588-0.962s-1.184-1.924-1.184-3.848V10.138
	c0-0.888-0.444-1.332-1.332-1.332c-2.418,0-4.515,0.296-6.29,0.888c-0.839,0.296-1.258,0.814-1.258,1.554v38.406
	c0,1.282,0.222,2.22,0.666,2.812c0.493,0.543,1.258,0.888,2.294,1.036c1.085,0.197,2.763,0.296,5.031,0.296
	c3.651,0,6.143-0.024,7.475-0.074c5.525-0.099,9.669-0.419,12.432-0.962c4.046-0.69,6.833-1.677,8.362-2.96
	c0.938-0.74,1.652-1.628,2.146-2.664c0.543-1.085,0.814-2.27,0.814-3.552V10.064z M93.54,21.312
	c4.785-1.381,8.288-2.072,10.508-2.072c2.763,0,4.144,1.012,4.144,3.034v28.342c-0.049,1.036,0,1.775,0.148,2.22
	c0.198,0.395,0.592,0.642,1.184,0.74c0.592,0.147,1.628,0.222,3.108,0.222c3.404,0,6.734-0.469,9.99-1.406
	c0.148-0.443,0.222-0.863,0.222-1.258c0-0.592-0.099-1.061-0.296-1.406l-5.106,0.148c-0.542,0-0.814-1.356-0.814-4.07V20.424
	c0-2.022-0.567-3.453-1.702-4.292c-1.135-0.888-3.059-1.332-5.772-1.332c-0.493,0-1.332,0.049-2.516,0.148
	c-1.974,0.247-3.651,0.543-5.032,0.888c-1.135,0.247-1.677,0.37-1.628,0.37c-0.74,0.148-1.973,0.469-3.7,0.962l-2.738,0.814
	c0.049-1.036-0.025-1.751-0.222-2.146c-0.148-0.444-0.518-0.715-1.11-0.814C91.616,14.874,90.58,14.8,89.1,14.8
	c-3.404,0-6.734,0.469-9.99,1.406c-0.148,0.444-0.222,0.863-0.222,1.258c0,0.592,0.099,1.061,0.296,1.406l5.106-0.148
	c0.542,0,0.814,1.356,0.814,4.07V52.54c0,0.839,0.419,1.258,1.258,1.258c2.122,0,4.12-0.271,5.994-0.813
	c0.79-0.297,1.184-0.79,1.184-1.48V21.312z M53.312,23.31c-0.099-1.974,0.468-3.355,1.702-4.144c1.233-0.839,3.577-1.258,7.03-1.258
	c1.628,0,2.738,0.395,3.33,1.184c0.641,0.74,0.962,2.146,0.962,4.218v4.514c0,1.579-0.321,2.664-0.962,3.256
	c-0.642,0.592-1.974,1.11-3.996,1.554c-2.072,0.395-4.761,0.74-8.066,1.036V23.31z M74.18,47.878
	c-1.529,0.395-3.996,0.863-7.4,1.406c-3.354,0.542-6.019,0.813-7.992,0.813c-2.22,0-3.7-0.296-4.44-0.888
	c-0.69-0.592-1.036-1.825-1.036-3.7v-8.436c4.489-0.296,9.472-0.863,14.948-1.702c2.27-0.494,3.922-1.308,4.958-2.442
	c1.036-1.184,1.554-2.812,1.554-4.884v-5.254c0-2.122-0.296-3.75-0.888-4.884c-0.592-1.134-1.579-1.924-2.96-2.368
	c-1.332-0.494-3.256-0.74-5.772-0.74c-7.104,0-12.235,0.592-15.392,1.776c-3.256,1.233-4.884,3.379-4.884,6.438v25.381
	c0,1.925,0.592,3.306,1.776,4.145c1.233,0.839,3.182,1.258,5.846,1.258c7.894,0,15.146-0.863,21.756-2.59
	c0.197-0.346,0.296-0.839,0.296-1.48C74.55,48.988,74.426,48.371,74.18,47.878z M38.036,46.397
	C30.932,48.421,22.2,49.481,11.84,49.58h-0.592L36.26,5.254c0.296-0.542,0.444-1.085,0.444-1.628c0-0.79-0.124-1.505-0.37-2.146
	C31.252,0.493,26.517,0,22.126,0C14.825,0,8.239,1.135,2.368,3.404C2.22,3.897,2.146,4.415,2.146,4.958
	c0,0.838,0.173,1.579,0.518,2.22c7.104-2.022,13.049-3.034,17.834-3.034c1.776,0,3.774,0.074,5.994,0.222L0.37,49.358
	C0.124,49.95,0,50.468,0,50.912c0,0.493,0.148,1.258,0.444,2.294c3.256,0.346,7.746,0.518,13.468,0.518
	c7.893,0,15.984-1.109,24.272-3.33c0.197-0.443,0.296-1.061,0.296-1.85C38.48,47.854,38.332,47.138,38.036,46.397z"/>
<path fill="#FF9B05" d="M221.903,77.836h31v-3h-31V77.836z M252.903,77.836c0.828,0,1.5-0.672,1.5-1.5s-0.672-1.5-1.5-1.5V77.836z
	 M221.903,74.836c-0.829,0-1.5,0.672-1.5,1.5s0.671,1.5,1.5,1.5V74.836z"/>
</svg>
